<?xml version="1.0" encoding="utf-8"?>
<!-- Generator: Adobe Illustrator 28.0.0, SVG Export Plug-In . SVG Version: 6.00 Build 0)  -->
<svg version="1.1" id="Capa_1" xmlns="http://www.w3.org/2000/svg" xmlns:xlink="http://www.w3.org/1999/xlink" x="0px" y="0px"
	 viewBox="0 0 412.1 137.7" style="enable-background:new 0 0 412.1 137.7;" xml:space="preserve">
<style type="text/css">
	.st0{fill:#FFFFFF;}
</style>
<g>
	<g>
		<path class="st0" d="M0,137.7v-28.4h5.7l11,19.3l11.1-19.3h5.7v28.4h-4v-23.8l-10.7,18.7h-4.1L4,113.9v23.8H0z"/>
		<path class="st0" d="M40.6,137.7v-28.4h4v13H50l11.4-13h4.9l-12.8,14.5l13.9,13.9h-5.3l-12.1-12.1h-5.5v12.1H40.6z"/>
		<path class="st0" d="M83,137.7v-25.1H69.2v-3.3h31.5v3.3H87v25.1H83z"/>
		<path class="st0" d="M112.2,109.3h24v3.3h-20v9.3h17.3v3.2h-17.3v9.3h20v3.3h-24V109.3z"/>
		<path class="st0" d="M155.4,120.9l9.6-11.7h4.8l-12.1,14.4l12.3,14H165l-10.4-11.6l-9.6,11.7h-4.8l12.1-14.4l-12.4-14h5.1
			L155.4,120.9z"/>
		<path class="st0" d="M174.5,137.7v-28.4h15.8c7.3,0,11,3,11,9.8c0,6.4-3.9,9.3-11.1,9.3h-11.6v9.3H174.5z M190,112.8h-11.5v12.1
			H190c4.2,0,7-1.8,7-5.9C197,114.7,194.2,112.8,190,112.8z"/>
		<path class="st0" d="M206.5,109.3h24v3.3h-20v9.3h17.3v3.2h-17.3v9.3h20v3.3h-24V109.3z"/>
		<path class="st0" d="M236.8,137.7v-28.4h15.9c7.3,0,10.9,2.9,10.9,9.6c0,4.9-2.7,7.7-7.4,8.6l6.5,10.2h-4.6l-6.1-9.7h-11.3v9.7
			H236.8z M252.5,124.7c4.2,0,7-1.7,7-5.8c0-4.1-2.8-6.1-7-6.1h-11.7v11.9H252.5z"/>
		<path class="st0" d="M269.7,137.7v-28.4h4v28.4H269.7z"/>
		<path class="st0" d="M280.8,109.3h24v3.3h-20v9.3h17.3v3.2h-17.3v9.3h20v3.3h-24V109.3z"/>
		<path class="st0" d="M311.2,137.7v-28.4h5.1l18.8,23.8v-23.8h4v28.4h-5.1l-18.7-23.8v23.8H311.2z"/>
		<path class="st0" d="M349,123.4c0,7.1,4,11,11.9,11c2.6,0,7.4-0.2,9.9-0.4v3.5c-2.4,0.3-7.3,0.4-9.7,0.4c-10.8,0-16.2-5-16.2-14.5
			c0-9.5,5.4-14.5,16.2-14.5c2.4,0,7.6,0.2,9.9,0.4v3.5c-2.4-0.2-7.4-0.4-10-0.4C353,112.5,349,116.4,349,123.4z"/>
		<path class="st0" d="M376.7,109.3h24v3.3h-20v9.3H398v3.2h-17.3v9.3h20v3.3h-24V109.3z"/>
	</g>
	<path class="st0" d="M241.7,0c-34.8,0-52,15.2-52.3,44.9l0,0c0,0.2,0,0.4,0,0.6c0,15.4-8,22.5-26.4,22.5h-19.3V23H163
		c10.5,0,17.6,2.2,21.7,7c1.9-8.1,5.6-15.8,12.1-22.1c-8.5-4.5-20.1-6.7-34.8-6.7h-43.8v88.5h43.8c37.2,0,53.9-13.9,53.9-44.3
		c0-0.1,0-0.1,0-0.2h0c0.1-15.2,8.5-23.5,25.7-23.5c17.2,0,25.6,8.3,25.6,23.7c0,15.4-8.4,23.7-25.6,23.7c-9.9,0-16.9-2.7-21.1-8
		c-2.2,9.2-6.5,16.6-12.9,22.1c8.4,5.1,19.7,7.6,34,7.6c34.9,0,52.2-15.4,52.2-45.5C293.9,15.4,276.6,0,241.7,0z M41.7,1.2L0,89.7
		h26.6l6.9-15h45.2l6.8,15h26.6L70.4,1.2H41.7z M41.7,56.5l14.4-31.2l14.3,31.2H41.7z M409.7,1.2l-1,2.5l-1-2.5h-2.4v5.1h1.7V3.1
		l1,2.3h1.6l1-2.3v3.3h1.7V1.2H409.7z M395.9,1.2h-30.1l-28.7,34.5H327V1.2h-25.5v88.5H327V56.2h11l30.1,33.5h32.5l-41.1-45.3
		L395.9,1.2z M398.9,2.6h2.1v3.8h1.7V2.6h2.1V1.2h-5.9V2.6z"/>
</g>
</svg>
