<svg width="118" height="170" viewBox="0 0 118 170" fill="none" xmlns="http://www.w3.org/2000/svg">
<g clip-path="url(#clip0_166_12)">
<g clip-path="url(#clip1_166_12)">
<path fill-rule="evenodd" clip-rule="evenodd" d="M56.995 2.00222C56.995 0.906667 57.8882 0 59.0095 0C60.1308 0 61.024 0.887778 61.024 2.00222V10.54C61.024 11.6356 60.1308 12.5422 59.0095 12.5422C57.8882 12.5422 56.995 11.6544 56.995 10.54V2.00222ZM37.9523 81.1278C38.7315 81.9022 38.7505 83.1678 37.9523 83.9422C37.2111 84.6978 36.0139 84.7356 35.2157 84.0367C21.0762 70.9845 20.278 49.0167 33.4102 34.9633C40.0238 27.8989 49.2981 23.8756 58.9905 23.8756C60.0928 23.8378 61.024 24.7067 61.062 25.8022C61.1 26.8978 60.2258 27.8233 59.1235 27.8611C59.0855 27.8611 59.0475 27.8611 59.0095 27.8611C41.9433 27.8422 28.0699 41.5744 28.0509 58.5556C28.0509 67.1311 31.6238 75.31 37.9523 81.1278ZM47.2266 129.313H70.7924V119.227H47.2266V129.313ZM70.7924 133.299H47.2266V135.641H70.7924V133.299ZM70.4693 139.608H47.5497L58.9335 163.408L70.4693 139.608ZM74.8024 119.208H78.2422C81.245 119.208 83.6776 116.79 83.6776 113.806V110.746C83.6776 109.31 83.1074 107.95 82.0812 106.93C81.492 106.344 80.7699 105.91 79.9907 105.627C79.9907 104.814 80.0097 103.983 80.1047 103.171C80.2757 101.736 80.5798 100.3 81.0359 98.9211V98.8833C81.5871 97.0133 82.4043 95.2378 83.4495 93.5944C84.5518 91.8944 85.8631 90.3267 87.3645 88.9478C104.222 73.3833 105.191 47.2033 89.55 30.4489C73.8902 13.6944 47.5497 12.7311 30.6925 28.2767C13.8354 43.8411 12.8662 70.0211 28.507 86.7756C29.2102 87.5311 29.9324 88.2489 30.6925 88.9478C32.1939 90.3267 33.5052 91.8756 34.6075 93.5944C35.6338 95.2 36.432 96.9378 36.9641 98.77C36.9641 98.8267 36.9831 98.8644 37.0021 98.9211C37.4392 100.3 37.7623 101.736 37.9333 103.171C38.0283 103.983 38.0664 104.814 38.0474 105.627C37.2682 105.891 36.546 106.344 35.9758 106.93C34.9496 107.95 34.3794 109.31 34.3794 110.746V113.824C34.3794 116.809 36.812 119.208 39.8148 119.227H43.2546V139.381C43.2546 139.683 43.3116 139.967 43.4447 140.231L57.166 168.886C57.6412 169.887 58.8195 170.302 59.8267 169.83C60.2448 169.641 60.5869 169.301 60.7769 168.886L74.5933 140.363C74.7644 140.061 74.8594 139.721 74.8594 139.362V119.208H74.8024ZM53.6692 105.343V67.49H50.0583C45.8963 67.49 42.5515 64.1278 42.5325 60.01V59.9722C42.5325 55.8167 45.9343 52.4356 50.1153 52.4356H50.1533C54.3153 52.4356 57.6792 55.7978 57.6792 59.9344V59.9722V105.362H60.3398V59.9722V59.9344C60.3588 55.8167 63.7227 52.4733 67.8657 52.4544H67.9037C72.0847 52.4544 75.4865 55.8356 75.4865 59.9911V60.0289C75.4865 64.1656 72.1037 67.49 67.9607 67.5089H64.3498V105.362H75.9997C75.9997 104.493 76.0377 103.624 76.1517 102.756C76.3418 101.056 76.7029 99.3933 77.235 97.75C77.8811 95.54 78.8314 93.4433 80.0667 91.4978C81.34 89.4956 82.8794 87.6633 84.6278 86.0578C99.8695 72.0044 100.763 48.3178 86.6233 33.1689C72.4838 18.02 48.652 17.1322 33.4102 31.1856C18.1685 45.2389 17.2752 68.9256 31.4147 84.0744C32.0609 84.7544 32.707 85.4156 33.4102 86.0578C35.1586 87.6633 36.698 89.4956 37.9713 91.4978C39.1876 93.4244 40.1379 95.4833 40.784 97.6556L40.822 97.75C41.3352 99.3745 41.6962 101.056 41.9053 102.756C42.0003 103.624 42.0573 104.493 42.0573 105.362H53.7072L53.6692 105.343ZM53.6692 63.5044V59.9533V59.9156C53.6692 58.99 53.3081 58.1022 52.6429 57.4411C51.9778 56.78 51.0846 56.4022 50.1343 56.3833H50.1153C48.1388 56.3833 46.5424 57.97 46.5424 59.9344V59.9722C46.5424 60.9167 46.9225 61.8044 47.6067 62.4656C48.2719 63.1267 49.1651 63.4856 50.0963 63.4856H53.6882L53.6692 63.5044ZM64.3688 63.5044V59.9533V59.9156C64.3688 58.99 64.7299 58.1022 65.3951 57.4411C66.0602 56.78 66.9535 56.4022 67.9037 56.3833H67.9227C69.8992 56.3833 71.4956 57.97 71.4956 59.9344V59.9722C71.4956 60.9167 71.1155 61.8044 70.4313 62.4656C69.7661 63.1267 68.8729 63.4856 67.9417 63.4856H64.3498L64.3688 63.5044ZM78.2612 109.329C79.0404 109.329 79.6866 109.971 79.6866 110.746V113.824C79.6866 114.599 79.0404 115.241 78.2612 115.241H39.7958C39.0166 115.241 38.3704 114.599 38.3704 113.824V110.746C38.3704 109.971 39.0166 109.329 39.7958 109.329H78.2612ZM109.372 85.2456C110.322 85.7933 110.664 87.0022 110.113 87.9467C109.562 88.8911 108.346 89.2311 107.395 88.6833L99.9646 84.4144C99.0143 83.8667 98.6722 82.6578 99.2234 81.7133C99.7745 80.7689 100.991 80.4289 101.941 80.9767L109.372 85.2456ZM116.024 56.6478C117.126 56.6478 118.038 57.5356 118.038 58.65C118.038 59.7644 117.145 60.6522 116.024 60.6522H107.433C106.331 60.6522 105.419 59.7644 105.419 58.65C105.419 57.5356 106.312 56.6478 107.433 56.6478H116.024ZM107.376 28.5978C108.327 28.05 109.562 28.3711 110.113 29.3156C110.664 30.26 110.341 31.4878 109.391 32.0356L101.96 36.3044C100.991 36.8333 99.7745 36.4744 99.2424 35.5111C98.7293 34.5856 99.0333 33.4144 99.9456 32.8667L107.376 28.5978ZM85.7871 8.59445C86.3382 7.65 87.5545 7.31 88.5238 7.85778C89.474 8.40556 89.8161 9.61444 89.2649 10.5778L84.9699 17.9633C84.4187 18.9078 83.2024 19.2478 82.2522 18.7C81.302 18.1522 80.9599 16.9433 81.511 15.9989L85.8061 8.61333L85.7871 8.59445ZM10.6426 88.6833C9.69238 89.2311 8.47608 88.91 7.92495 87.9467C7.37381 87.0022 7.69689 85.7933 8.66613 85.2456L16.097 80.9767C17.0472 80.4289 18.2635 80.75 18.8146 81.7133C19.3658 82.6578 19.0427 83.8667 18.0734 84.4144L10.6426 88.6833ZM2.01449 60.6333C0.912224 60.6333 0 59.7456 0 58.6311C0 57.5167 0.893219 56.6289 2.01449 56.6289H10.6046C11.7069 56.6289 12.6191 57.5167 12.6191 58.6311C12.6191 59.7456 11.7259 60.6333 10.6046 60.6333H2.01449ZM8.64713 32.0356C7.69689 31.4878 7.37381 30.2789 7.92495 29.3156C8.47608 28.3522 9.69238 28.05 10.6616 28.5978L18.0924 32.8667C19.0427 33.4144 19.3658 34.6422 18.8146 35.5867C18.2635 36.5311 17.0282 36.8522 16.078 36.3044L8.64713 32.0356ZM28.7731 10.5778C28.2599 9.59556 28.659 8.40556 29.6283 7.89556C30.5405 7.42333 31.6618 7.72556 32.2319 8.59445L36.527 15.98C37.0591 16.9433 36.698 18.1522 35.7288 18.6811C34.7976 19.1911 33.6193 18.87 33.0681 17.9633L28.7921 10.5778H28.7731Z" fill="#C32D41"/>
</g>
</g>
<defs>
<clipPath id="clip0_166_12">
<rect width="118" height="170" fill="white"/>
</clipPath>
<clipPath id="clip1_166_12">
<rect width="118" height="170" fill="white"/>
</clipPath>
</defs>
</svg>
